<svg aria-hidden="true" style="width:0;height:0;position:absolute;overflow:hidden" xmlns="http://www.w3.org/2000/svg"><defs><symbol id="banner-arrow" viewBox="0 0 24 32"><path fill="#fff" d="M21.029 17.595 8.277 30.342a2.235 2.235 0 0 1-3.178.001l-2.117-2.117c-.408-.406-.66-.967-.66-1.588s.252-1.182.66-1.588l9.037-9.04-9.037-9.037c-.408-.406-.66-.967-.66-1.588s.252-1.182.66-1.588l2.109-2.141c.406-.409.968-.661 1.589-.661s1.183.253 1.589.661l12.749 12.749c.891.88.891 2.307.011 3.189z"/></symbol><symbol id="icon-instagram" viewBox="0 0 32 32"><path d="M9.953 1.421c1.564-.072 2.063-.088 6.047-.088s4.483.017 6.045.088c1.563.071 2.629.32 3.563.681a7.218 7.218 0 0 1 2.597 1.693 7.158 7.158 0 0 1 1.691 2.596c.363.933.611 2 .683 3.56.072 1.567.088 2.065.088 6.048 0 3.984-.017 4.483-.088 6.047-.071 1.56-.32 2.627-.683 3.56a7.234 7.234 0 0 1-1.69 2.598l-.001.001a7.187 7.187 0 0 1-2.597 1.691c-.933.363-2 .611-3.56.683-1.565.072-2.064.088-6.048.088s-4.483-.017-6.047-.088c-1.56-.071-2.627-.32-3.56-.683a7.234 7.234 0 0 1-2.598-1.69l-.001-.001a7.196 7.196 0 0 1-1.675-2.548l-.017-.049c-.361-.933-.609-2-.681-3.56-.072-1.567-.088-2.065-.088-6.048 0-3.984.017-4.483.088-6.045s.32-2.629.681-3.563a7.243 7.243 0 0 1 1.692-2.596l.001-.001A7.192 7.192 0 0 1 6.342 2.12l.049-.017c.933-.361 2-.609 3.56-.681h.001zm11.974 2.64C20.38 3.99 19.916 3.976 16 3.976s-4.38.015-5.927.085c-1.431.065-2.207.304-2.724.505a4.57 4.57 0 0 0-1.687 1.096 4.553 4.553 0 0 0-1.086 1.655l-.01.031c-.201.517-.44 1.293-.505 2.724-.071 1.547-.085 2.011-.085 5.927s.015 4.38.085 5.927c.065 1.431.304 2.207.505 2.724a4.56 4.56 0 0 0 1.096 1.687 4.551 4.551 0 0 0 1.687 1.096c.517.201 1.293.44 2.724.505 1.547.071 2.009.085 5.927.085s4.38-.015 5.927-.085c1.431-.065 2.207-.304 2.724-.505a4.57 4.57 0 0 0 1.687-1.096 4.551 4.551 0 0 0 1.096-1.687c.201-.517.44-1.293.505-2.724.071-1.547.085-2.011.085-5.927s-.015-4.38-.085-5.927c-.065-1.431-.304-2.207-.505-2.724a4.57 4.57 0 0 0-1.096-1.687 4.566 4.566 0 0 0-1.655-1.086l-.031-.01c-.517-.201-1.293-.44-2.724-.505zm-7.8 16.46a4.893 4.893 0 1 0 3.555-9.117l-.034-.011a4.893 4.893 0 0 0-3.553 9.115l.032.012zm-3.458-9.852a7.54 7.54 0 0 1 10.662 10.662 7.54 7.54 0 0 1-10.662-10.662zm14.542-1.085a1.782 1.782 0 1 0-2.447-2.591l.001-.001a1.782 1.782 0 1 0 2.447 2.591l-.001.001z"/></symbol><symbol id="icon-facebook" viewBox="0 0 32 32"><path d="M14.26 11.916v1.836h-1.344v2.244h1.344v6.671h2.763v-6.671h1.853s.175-1.076.259-2.253h-2.101V12.21c0-.231.301-.539.6-.539h1.504V9.334h-2.047c-2.899 0-2.831 2.247-2.831 2.583z"/><path d="M8 5.333A2.667 2.667 0 0 0 5.333 8v16A2.667 2.667 0 0 0 8 26.667h16A2.667 2.667 0 0 0 26.667 24V8A2.667 2.667 0 0 0 24 5.333H8zm0-2.666h16A5.333 5.333 0 0 1 29.333 8v16A5.333 5.333 0 0 1 24 29.333H8A5.333 5.333 0 0 1 2.667 24V8A5.333 5.333 0 0 1 8 2.667z"/></symbol><symbol id="icon-telegram" viewBox="0 0 32 32"><path d="M26.069 3.996c-.342.025-.66.105-.953.23l.019-.007h-.003c-.285.113-1.64.683-3.7 1.547l-7.383 3.109-10.504 4.427.063-.024s-.36.117-.733.373a2.037 2.037 0 0 0-.587.568 1.643 1.643 0 0 0-.277 1.118l-.001-.007c.089.721.557 1.155.893 1.393.34.243.664.355.664.355h.008l4.884 1.645c.219.703 1.488 4.875 1.792 5.836.18.573.356.933.575 1.207.107.14.229.257.379.352.077.045.16.08.247.107l-.051-.013c.015.004.027.016.039.02.04.011.067.015.117.023.773.235 1.395-.245 1.395-.245l.035-.028 2.883-2.625 4.832 3.707.111.048c1.007.441 2.027.196 2.565-.239.544-.437.755-.996.755-.996l.035-.089 3.733-19.129c.107-.472.133-.915.017-1.343a1.813 1.813 0 0 0-.781-1.048 1.849 1.849 0 0 0-1.071-.269h.005zm-.1 2.049c-.004.064.008.056-.02.177v.011L22.25 25.164c-.016.027-.044.085-.117.145-.079.061-.14.1-.465-.028l-5.911-4.532-3.569 3.253.749-4.789 9.656-9c.399-.369.267-.448.267-.448.027-.453-.601-.133-.601-.133L10.08 17.177l-.004-.02-5.849-1.972c.012-.004.021-.009.031-.014l-.001.001.032-.015.031-.011 10.508-4.427c2.652-1.117 5.324-2.241 7.379-3.109 1.219-.513 2.44-1.024 3.66-1.531.083-.032.044-.032.103-.032z"/></symbol><symbol id="icon-phone" viewBox="0 0 32 32"><path d="M21 2.667a3 3 0 0 1 3 3v20.667a3 3 0 0 1-3 3H11a3 3 0 0 1-3-3V5.667a3 3 0 0 1 3-3h10zm0 2H11a1 1 0 0 0-1 1v20.667a1 1 0 0 0 1 1h10a1 1 0 0 0 1-1V5.667a1 1 0 0 0-1-1zm-3.335 18.666h.001a1 1 0 0 1 .001 2l-3.333.005h-.001a1 1 0 0 1-.001-2l3.333-.005z"/></symbol><symbol id="icon-mark-map" viewBox="0 0 19 32"><path d="M9.6.656h-.016A9.584 9.584 0 0 0 0 10.24c0 9.166 9.6 21.12 9.6 21.12s9.6-11.957 9.6-21.12A9.584 9.584 0 0 0 9.616.656h-.017.001zm0 14.883a5.184 5.184 0 0 1 0-10.368 5.184 5.184 0 0 1 0 10.368z"/></symbol><symbol id="icon-swiper-button-prev" viewBox="0 0 55 32"><path d="M55.06 14.182H7.646L18.555 3.273 15.983.703.686 16l15.297 15.297 2.572-2.57L7.646 17.818H55.06v-3.636z"/></symbol><symbol id="icon-swiper-button-next" viewBox="0 0 55 32"><path d="m39.44.703-2.572 2.57 10.909 10.909H.363v3.636h47.414L36.868 28.727l2.572 2.57L54.739 16 39.44.703z"/></symbol><symbol id="return-arrow" viewBox="0 0 24 14"><path d="m16.869.69-1.06 1.06 4.5 4.5H.75v1.5h19.558l-4.5 4.5 1.061 1.06L23.179 7 16.87.69Z"/></symbol><symbol id="left-arrow" viewBox="0 0 30 17"><path d="M30 7.49H3.84L9.86 1.429 8.44 0 0 8.5 8.44 17l1.419-1.429-6.019-6.06H30V7.49Z"/></symbol><symbol id="right-arrow" viewBox="0 0 30 17"><path d="m21.56 0-1.42 1.429 6.02 6.06H0V9.51h26.16l-6.02 6.061L21.56 17 30 8.5 21.56 0Z"/></symbol><symbol id="icon-close-back-icon" viewBox="0 0 32 32"><path stroke-linejoin="round" stroke-linecap="round" stroke-width="2" d="m27.429 3.428-24 24M3.429 3.428l24 24"/></symbol><symbol id="icon-ep_arrow-down-bold" viewBox="0 0 32 32"><path d="M3.272 10.586a2 2 0 0 1 2.828 0l9.9 9.9 9.9-9.9a1.998 1.998 0 0 1 2.804.025 2.001 2.001 0 0 1 .025 2.804L17.415 24.729a2 2 0 0 1-2.828 0L3.273 13.415a2 2 0 0 1 0-2.828z"/></symbol><symbol id="icon-arrow-right" viewBox="0 0 32 32"><path d="M22.492 7.586 21.078 9l6 6H1v2h26.078l-6 6 1.414 1.414L30.906 16l-8.414-8.414z"/></symbol><symbol id="icon-arrow-left" viewBox="0 0 32 32"><path d="M31.083 15H5.005l6-6-1.414-1.414L1.177 16l8.414 8.414L11.005 23l-6-6h26.078v-2z"/></symbol><symbol id="icon-cross" viewBox="0 0 32 32"><path stroke-linejoin="round" stroke-linecap="round" stroke-width="2" d="m27.428 3.428-24 24M3.428 3.428l24 24"/></symbol></defs></svg>